<svg xmlns="http://www.w3.org/2000/svg" viewBox="0 0 64 64" fill="none"><path fill="#29ccb1" fill-rule="evenodd" d="m56.748 16.725-23-13.255a3.5 3.5 0 00-3.495 0l-23 13.255a3.5 3.5 0 00-1.753 3.033v24.489a3.5 3.5 0 001.752 3.032l23 13.255a3.5 3.5 0 003.496 0l23-13.255a3.5 3.5 0 001.752-3.032v-24.49a3.5 3.5 0 00-1.752-3.032zm-21.503-15.855a6.5 6.5 0 00-6.49 0l-23 13.255a6.5 6.5 0 00-3.255 5.633v24.489a6.5 6.5 0 003.255 5.632l23 13.255a6.5 6.5 0 006.49 0l23-13.255a6.5 6.5 0 003.255-5.632v-24.49a6.5 6.5 0 00-3.255-5.632l-23-13.255z" clip-rule="evenodd"/><path fill="#808080" d="m31.5 15.9v5.1h1v-5.1c.9-.2 1.5-1 1.5-1.9 0-1.1-.9-2-2-2s-2 .9-2 2c0 .9.6 1.7 1.5 1.9zm7.9 8 3.6-3.6c-.5-.8-.4-1.8.3-2.4.8-.8 2-.8 2.8 0 .8.8.8 2 0 2.8-.7.7-1.7.8-2.4.3l-3.6 3.6-.7-.7zm-11.4 5.85a.75.75 0 00-1.5 0v4.5a.75.75 0 001.5 0v-4.5zm2.5-2v5.5a.75.75 0 01-1.5 0v-5.5a.75.75 0 011.5 0zm2.5 9.5v-5.5a.75.75 0 00-1.5 0v5.5a.75.75 0 001.5 0zm2.5-2.5v2.5a.75.75 0 01-1.5 0v-2.5a.75.75 0 011.5 0zm2.5-.5v-4a.75.75 0 00-1.5 0v4a.75.75 0 001.5 0zm4-2.25c0-5.5-4.5-10-10-10s-10 4.5-10 10c0 3.7 2 6.9 5 8.6.9.5 1.9.9 3 1.2v8.218a2 2 0 004 0v-8.218c1.1-.2 2.1-.6 3-1.2 3-1.7 5-4.9 5-8.6zm-10 8c-1.9 0-3.6-.7-5-1.8-1.8-1.5-3-3.7-3-6.2 0-4.4 3.6-8 8-8s8 3.6 8 8c0 2.5-1.2 4.8-3 6.2-1.4 1.1-3.1 1.8-5 1.8zm-11.7 3 3.6-3.6.7.7-3.6 3.6c.5.7.4 1.7-.3 2.4-.8.8-2 .8-2.8 0-.8-.8-.8-2 0-2.8.6-.7 1.6-.8 2.4-.3zm.7-11.5h-5.1c-.2-.9-1-1.5-1.9-1.5-1.1 0-2 .9-2 2s.9 2 2 2c.9 0 1.7-.6 1.9-1.5h5.1v-1zm27.1 0h-5.1v1h5.1c.2.9 1 1.5 1.9 1.5 1.1 0 2-.9 2-2s-.9-2-2-2c-.9 0-1.7.6-1.9 1.5zm-23.5-7.6-3.6-3.6c.5-.8.4-1.8-.3-2.4-.8-.8-2-.8-2.8 0-.8.8-.8 2 0 2.8.7.7 1.7.8 2.4.3l3.6 3.6.7-.7zm19.1 19.1-3.6-3.6-.7.7 3.6 3.6c-.5.7-.4 1.7.3 2.4.8.8 2 .8 2.8 0 .8-.8.8-2 0-2.8-.6-.7-1.6-.8-2.4-.3z"/></svg>